<?xml version="1.0" encoding="utf-8"?>
<!-- Generator: Adobe Illustrator 22.1.0, SVG Export Plug-In . SVG Version: 6.00 Build 0)  -->
<svg version="1.1" xmlns="http://www.w3.org/2000/svg" xmlns:xlink="http://www.w3.org/1999/xlink" x="0px" y="0px"
	 viewBox="0 0 1131.5 215.8" style="enable-background:new 0 0 1131.5 215.8;" xml:space="preserve">
<style type="text/css">
	.st0{display:none;}
	.st1{display:inline;}
	.st2{clip-path:url(#SVGID_2_);fill:none;stroke:#9D9D9C;stroke-width:0.5;stroke-miterlimit:10;}
	.st3{clip-path:url(#SVGID_2_);fill:none;stroke:#9D9D9C;stroke-width:0.75;stroke-miterlimit:10;}
	.st4{clip-path:url(#SVGID_2_);}
	.st5{clip-path:url(#SVGID_4_);fill:#706F6F;}
	.st6{clip-path:url(#SVGID_4_);fill:#D11962;}
	.st7{display:inline;fill:#B2B2B2;}
	.st8{fill:#FFFFFF;}
</style>
<g id="Capa_1" class="st0">
	<g class="st1">
		<g>
			<defs>
				<rect id="SVGID_1_" x="-377.5" y="-173.4" width="1280" height="1323.5"/>
			</defs>
			<clipPath id="SVGID_2_">
				<use xlink:href="#SVGID_1_"  style="overflow:visible;"/>
			</clipPath>
			<rect x="1.6" y="-10.9" class="st2" width="236.5" height="236.5"/>
			<line class="st2" x1="1.6" y1="225.6" x2="238.1" y2="225.6"/>
			<line class="st2" x1="1.6" y1="213.8" x2="238.1" y2="213.8"/>
			<line class="st2" x1="1.6" y1="202" x2="238.1" y2="202"/>
			<line class="st2" x1="1.6" y1="190.2" x2="238.1" y2="190.2"/>
			<line class="st2" x1="1.6" y1="178.3" x2="238.1" y2="178.3"/>
			<line class="st2" x1="1.6" y1="166.5" x2="238.1" y2="166.5"/>
			<line class="st2" x1="1.6" y1="154.7" x2="238.1" y2="154.7"/>
			<line class="st2" x1="1.6" y1="142.9" x2="238.1" y2="142.9"/>
			<line class="st2" x1="1.6" y1="131" x2="238.1" y2="131"/>
			<line class="st2" x1="1.6" y1="119.2" x2="238.1" y2="119.2"/>
			<line class="st2" x1="1.6" y1="107.4" x2="238.1" y2="107.4"/>
			<line class="st2" x1="1.6" y1="95.6" x2="238.1" y2="95.6"/>
			<line class="st2" x1="1.6" y1="83.7" x2="238.1" y2="83.7"/>
			<line class="st2" x1="1.6" y1="71.9" x2="238.1" y2="71.9"/>
			<line class="st2" x1="1.6" y1="60.1" x2="238.1" y2="60.1"/>
			<line class="st2" x1="1.6" y1="48.3" x2="238.1" y2="48.3"/>
			<line class="st2" x1="1.6" y1="36.4" x2="238.1" y2="36.4"/>
			<line class="st2" x1="1.6" y1="24.6" x2="238.1" y2="24.6"/>
			<line class="st2" x1="1.6" y1="12.8" x2="238.1" y2="12.8"/>
			<line class="st2" x1="1.6" y1="1" x2="238.1" y2="1"/>
			<line class="st2" x1="238.1" y1="-10.9" x2="238.1" y2="225.6"/>
			<line class="st2" x1="226.3" y1="-10.9" x2="226.3" y2="225.6"/>
			<line class="st2" x1="214.4" y1="-10.9" x2="214.4" y2="225.6"/>
			<line class="st2" x1="202.6" y1="-10.9" x2="202.6" y2="225.6"/>
			<line class="st2" x1="190.8" y1="-10.9" x2="190.8" y2="225.6"/>
			<line class="st2" x1="179" y1="-10.9" x2="179" y2="225.6"/>
			<line class="st2" x1="167.2" y1="-10.9" x2="167.2" y2="225.6"/>
			<line class="st2" x1="155.3" y1="-10.9" x2="155.3" y2="225.6"/>
			<line class="st2" x1="143.5" y1="-10.9" x2="143.5" y2="225.6"/>
			<line class="st2" x1="131.7" y1="-10.9" x2="131.7" y2="225.6"/>
			<line class="st2" x1="119.9" y1="-10.9" x2="119.9" y2="225.6"/>
			<line class="st2" x1="108" y1="-10.9" x2="108" y2="225.6"/>
			<line class="st2" x1="96.2" y1="-10.9" x2="96.2" y2="225.6"/>
			<line class="st2" x1="84.4" y1="-10.9" x2="84.4" y2="225.6"/>
			<line class="st2" x1="72.6" y1="-10.9" x2="72.6" y2="225.6"/>
			<line class="st2" x1="60.7" y1="-10.9" x2="60.7" y2="225.6"/>
			<line class="st2" x1="48.9" y1="-10.9" x2="48.9" y2="225.6"/>
			<line class="st2" x1="37.1" y1="-10.9" x2="37.1" y2="225.6"/>
			<line class="st2" x1="25.3" y1="-10.9" x2="25.3" y2="225.6"/>
			<line class="st2" x1="13.4" y1="-10.9" x2="13.4" y2="225.6"/>
			<rect x="286.9" y="-10.9" class="st2" width="236.5" height="236.5"/>
			<line class="st2" x1="286.9" y1="225.6" x2="523.4" y2="225.6"/>
			<line class="st2" x1="286.9" y1="213.8" x2="523.4" y2="213.8"/>
			<line class="st2" x1="286.9" y1="202" x2="523.4" y2="202"/>
			<line class="st2" x1="286.9" y1="190.2" x2="523.4" y2="190.2"/>
			<line class="st2" x1="286.9" y1="178.3" x2="523.4" y2="178.3"/>
			<line class="st2" x1="286.9" y1="166.5" x2="523.4" y2="166.5"/>
			<line class="st2" x1="286.9" y1="154.7" x2="523.4" y2="154.7"/>
			<line class="st2" x1="286.9" y1="142.9" x2="523.4" y2="142.9"/>
			<line class="st2" x1="286.9" y1="131" x2="523.4" y2="131"/>
			<line class="st2" x1="286.9" y1="119.2" x2="523.4" y2="119.2"/>
			<line class="st2" x1="286.9" y1="107.4" x2="523.4" y2="107.4"/>
			<line class="st2" x1="286.9" y1="95.6" x2="523.4" y2="95.6"/>
			<line class="st2" x1="286.9" y1="83.7" x2="523.4" y2="83.7"/>
			<line class="st2" x1="286.9" y1="71.9" x2="523.4" y2="71.9"/>
			<line class="st2" x1="286.9" y1="60.1" x2="523.4" y2="60.1"/>
			<line class="st2" x1="286.9" y1="48.3" x2="523.4" y2="48.3"/>
			<line class="st2" x1="286.9" y1="36.4" x2="523.4" y2="36.4"/>
			<line class="st2" x1="286.9" y1="24.6" x2="523.4" y2="24.6"/>
			<line class="st2" x1="286.9" y1="12.8" x2="523.4" y2="12.8"/>
			<line class="st2" x1="286.9" y1="1" x2="523.4" y2="1"/>
			<line class="st2" x1="523.4" y1="-10.9" x2="523.4" y2="225.6"/>
			<line class="st2" x1="511.6" y1="-10.9" x2="511.6" y2="225.6"/>
			<line class="st2" x1="499.8" y1="-10.9" x2="499.8" y2="225.6"/>
			<line class="st2" x1="488" y1="-10.9" x2="488" y2="225.6"/>
			<line class="st2" x1="476.1" y1="-10.9" x2="476.1" y2="225.6"/>
			<line class="st2" x1="464.3" y1="-10.9" x2="464.3" y2="225.6"/>
			<line class="st2" x1="452.5" y1="-10.9" x2="452.5" y2="225.6"/>
			<line class="st2" x1="440.7" y1="-10.9" x2="440.7" y2="225.6"/>
			<line class="st2" x1="428.8" y1="-10.9" x2="428.8" y2="225.6"/>
			<line class="st2" x1="417" y1="-10.9" x2="417" y2="225.6"/>
			<line class="st2" x1="405.2" y1="-10.9" x2="405.2" y2="225.6"/>
			<line class="st2" x1="393.4" y1="-10.9" x2="393.4" y2="225.6"/>
			<line class="st2" x1="381.5" y1="-10.9" x2="381.5" y2="225.6"/>
			<line class="st2" x1="369.7" y1="-10.9" x2="369.7" y2="225.6"/>
			<line class="st2" x1="357.9" y1="-10.9" x2="357.9" y2="225.6"/>
			<line class="st2" x1="346.1" y1="-10.9" x2="346.1" y2="225.6"/>
			<line class="st2" x1="334.2" y1="-10.9" x2="334.2" y2="225.6"/>
			<line class="st2" x1="322.4" y1="-10.9" x2="322.4" y2="225.6"/>
			<line class="st2" x1="310.6" y1="-10.9" x2="310.6" y2="225.6"/>
			<line class="st2" x1="298.8" y1="-10.9" x2="298.8" y2="225.6"/>
			<rect x="286.9" y="-10.9" class="st3" width="47.3" height="47.3"/>
			<rect x="334.2" y="-10.9" class="st3" width="47.3" height="47.3"/>
			<rect x="381.5" y="-10.9" class="st3" width="47.3" height="47.3"/>
			<rect x="428.8" y="-10.9" class="st3" width="47.3" height="47.3"/>
			<rect x="476.1" y="-10.9" class="st3" width="47.3" height="47.3"/>
			<rect x="286.9" y="36.4" class="st3" width="47.3" height="47.3"/>
			<rect x="334.2" y="36.4" class="st3" width="47.3" height="47.3"/>
			<rect x="381.5" y="36.4" class="st3" width="47.3" height="47.3"/>
			<rect x="428.8" y="36.4" class="st3" width="47.3" height="47.3"/>
			<rect x="476.1" y="36.4" class="st3" width="47.3" height="47.3"/>
			<rect x="286.9" y="83.7" class="st3" width="47.3" height="47.3"/>
			<rect x="334.2" y="83.7" class="st3" width="47.3" height="47.3"/>
			<rect x="381.5" y="83.7" class="st3" width="47.3" height="47.3"/>
			<rect x="428.8" y="83.7" class="st3" width="47.3" height="47.3"/>
			<rect x="476.1" y="83.7" class="st3" width="47.3" height="47.3"/>
			<rect x="286.9" y="131" class="st3" width="47.3" height="47.3"/>
			<rect x="334.2" y="131" class="st3" width="47.3" height="47.3"/>
			<rect x="381.5" y="131" class="st3" width="47.3" height="47.3"/>
			<rect x="428.8" y="131" class="st3" width="47.3" height="47.3"/>
			<rect x="476.1" y="131" class="st3" width="47.3" height="47.3"/>
			<rect x="286.9" y="178.3" class="st3" width="47.3" height="47.3"/>
			<rect x="334.2" y="178.3" class="st3" width="47.3" height="47.3"/>
			<rect x="381.5" y="178.3" class="st3" width="47.3" height="47.3"/>
			<rect x="428.8" y="178.3" class="st3" width="47.3" height="47.3"/>
			<rect x="476.1" y="178.3" class="st3" width="47.3" height="47.3"/>
			<rect x="128.8" y="380" class="st2" width="267.4" height="267.4"/>
			<line class="st2" x1="167" y1="380" x2="167" y2="647.4"/>
			<line class="st2" x1="186.1" y1="380" x2="186.1" y2="647.4"/>
			<line class="st2" x1="147.9" y1="380" x2="147.9" y2="647.4"/>
			<line class="st2" x1="205.2" y1="380" x2="205.2" y2="647.4"/>
			<line class="st2" x1="224.3" y1="380" x2="224.3" y2="647.4"/>
			<line class="st2" x1="243.4" y1="380" x2="243.4" y2="647.4"/>
			<line class="st2" x1="262.5" y1="380" x2="262.5" y2="647.4"/>
			<line class="st2" x1="281.6" y1="380" x2="281.6" y2="647.4"/>
			<line class="st2" x1="300.7" y1="380" x2="300.7" y2="647.4"/>
			<line class="st2" x1="319.8" y1="380" x2="319.8" y2="647.4"/>
			<line class="st2" x1="338.9" y1="380" x2="338.9" y2="647.4"/>
			<line class="st2" x1="358" y1="380" x2="358" y2="647.4"/>
			<line class="st2" x1="377.1" y1="380" x2="377.1" y2="647.4"/>
			<line class="st2" x1="396.2" y1="609.2" x2="128.8" y2="609.2"/>
			<line class="st2" x1="396.2" y1="590.1" x2="128.8" y2="590.1"/>
			<line class="st2" x1="396.2" y1="628.3" x2="128.8" y2="628.3"/>
			<line class="st2" x1="396.2" y1="571" x2="128.8" y2="571"/>
			<line class="st2" x1="396.2" y1="551.9" x2="128.8" y2="551.9"/>
			<line class="st2" x1="396.2" y1="532.8" x2="128.8" y2="532.8"/>
			<line class="st2" x1="396.2" y1="513.7" x2="128.8" y2="513.7"/>
			<line class="st2" x1="396.2" y1="494.6" x2="128.8" y2="494.6"/>
			<line class="st2" x1="396.2" y1="475.5" x2="128.8" y2="475.5"/>
			<line class="st2" x1="396.2" y1="456.4" x2="128.8" y2="456.4"/>
			<line class="st2" x1="396.2" y1="437.3" x2="128.8" y2="437.3"/>
			<line class="st2" x1="396.2" y1="418.2" x2="128.8" y2="418.2"/>
			<line class="st2" x1="396.2" y1="399.1" x2="128.8" y2="399.1"/>
			<polyline class="st2" points="377.1,380 396.2,418.2 377.1,456.4 396.2,494.6 377.1,532.8 396.2,571 377.1,609.2 396.2,647.4 			
				"/>
			<polyline class="st2" points="358,380 377.1,418.2 358,456.4 377.1,494.6 358,532.8 377.1,571 358,609.2 377.1,647.4 			"/>
			<polyline class="st2" points="338.9,380 358,418.2 338.9,456.4 358,494.6 338.9,532.8 358,571 338.9,609.2 358,647.4 			"/>
			<polyline class="st2" points="319.8,380 338.9,418.2 319.8,456.4 338.9,494.6 319.8,532.8 338.9,571 319.8,609.2 338.9,647.4 			
				"/>
			<polyline class="st2" points="300.7,380 319.8,418.2 300.7,456.4 319.8,494.6 300.7,532.8 319.8,571 300.7,609.2 319.8,647.4 			
				"/>
			<polyline class="st2" points="281.6,380 300.7,418.2 281.6,456.4 300.7,494.6 281.6,532.8 300.7,571 281.6,609.2 300.7,647.4 			
				"/>
			<polyline class="st2" points="262.5,380 281.6,418.2 262.5,456.4 281.6,494.6 262.5,532.8 281.6,571 262.5,609.2 281.6,647.4 			
				"/>
			<polyline class="st2" points="243.4,380 262.5,418.2 243.4,456.4 262.5,494.6 243.4,532.8 262.5,571 243.4,609.2 262.5,647.4 			
				"/>
			<polyline class="st2" points="224.3,380 243.4,418.2 224.3,456.4 243.4,494.6 224.3,532.8 243.4,571 224.3,609.2 243.4,647.4 			
				"/>
			<polyline class="st2" points="205.2,380 224.3,418.2 205.2,456.4 224.3,494.6 205.2,532.8 224.3,571 205.2,609.2 224.3,647.4 			
				"/>
			<polyline class="st2" points="186.1,380 205.2,418.2 186.1,456.4 205.2,494.6 186.1,532.8 205.2,571 186.1,609.2 205.2,647.4 			
				"/>
			<polyline class="st2" points="167,380 186.1,418.2 167,456.4 186.1,494.6 167,532.8 186.1,571 167,609.2 186.1,647.4 			"/>
			<polyline class="st2" points="147.9,380 167,418.2 147.9,456.4 167,494.6 147.9,532.8 167,571 147.9,609.2 167,647.4 			"/>
			<polyline class="st2" points="128.8,380 147.9,418.2 128.8,456.4 147.9,494.6 128.8,532.8 147.9,571 128.8,609.2 147.9,647.4 			
				"/>
			<polyline class="st2" points="377.1,647.4 396.2,609.2 377.1,571 396.2,532.8 377.1,494.6 396.2,456.4 377.1,418.2 396.2,380 			
				"/>
			<polyline class="st2" points="358,647.4 377.1,609.2 358,571 377.1,532.8 358,494.6 377.1,456.4 358,418.2 377.1,380 			"/>
			<polyline class="st2" points="338.9,647.4 358,609.2 338.9,571 358,532.8 338.9,494.6 358,456.4 338.9,418.2 358,380 			"/>
			<polyline class="st2" points="319.8,647.4 338.9,609.2 319.8,571 338.9,532.8 319.8,494.6 338.9,456.4 319.8,418.2 338.9,380 			
				"/>
			<polyline class="st2" points="300.7,647.4 319.8,609.2 300.7,571 319.8,532.8 300.7,494.6 319.8,456.4 300.7,418.2 319.8,380 			
				"/>
			<polyline class="st2" points="281.6,647.4 300.7,609.2 281.6,571 300.7,532.8 281.6,494.6 300.7,456.4 281.6,418.2 300.7,380 			
				"/>
			<polyline class="st2" points="262.5,647.4 281.6,609.2 262.5,571 281.6,532.8 262.5,494.6 281.6,456.4 262.5,418.2 281.6,380 			
				"/>
			<polyline class="st2" points="243.4,647.4 262.5,609.2 243.4,571 262.5,532.8 243.4,494.6 262.5,456.4 243.4,418.2 262.5,380 			
				"/>
			<polyline class="st2" points="224.3,647.4 243.4,609.2 224.3,571 243.4,532.8 224.3,494.6 243.4,456.4 224.3,418.2 243.4,380 			
				"/>
			<polyline class="st2" points="205.2,647.4 224.3,609.2 205.2,571 224.3,532.8 205.2,494.6 224.3,456.4 205.2,418.2 224.3,380 			
				"/>
			<polyline class="st2" points="186.1,647.4 205.2,609.2 186.1,571 205.2,532.8 186.1,494.6 205.2,456.4 186.1,418.2 205.2,380 			
				"/>
			<polyline class="st2" points="167,647.4 186.1,609.2 167,571 186.1,532.8 167,494.6 186.1,456.4 167,418.2 186.1,380 			"/>
			<polyline class="st2" points="147.9,647.4 167,609.2 147.9,571 167,532.8 147.9,494.6 167,456.4 147.9,418.2 167,380 			"/>
			<polyline class="st2" points="128.8,647.4 147.9,609.2 128.8,571 147.9,532.8 128.8,494.6 147.9,456.4 128.8,418.2 147.9,380 			
				"/>
			<rect x="423.4" y="380" class="st2" width="267.4" height="267.4"/>
			<line class="st2" x1="690.8" y1="418.2" x2="423.4" y2="418.2"/>
			<line class="st2" x1="690.8" y1="437.3" x2="423.4" y2="437.3"/>
			<line class="st2" x1="690.8" y1="399.1" x2="423.4" y2="399.1"/>
			<line class="st2" x1="690.8" y1="456.4" x2="423.4" y2="456.4"/>
			<line class="st2" x1="690.8" y1="475.5" x2="423.4" y2="475.5"/>
			<line class="st2" x1="690.8" y1="494.6" x2="423.4" y2="494.6"/>
			<line class="st2" x1="690.8" y1="513.7" x2="423.4" y2="513.7"/>
			<line class="st2" x1="690.8" y1="532.8" x2="423.4" y2="532.8"/>
			<line class="st2" x1="690.8" y1="551.9" x2="423.4" y2="551.9"/>
			<line class="st2" x1="690.8" y1="571" x2="423.4" y2="571"/>
			<line class="st2" x1="690.8" y1="590.1" x2="423.4" y2="590.1"/>
			<line class="st2" x1="690.8" y1="609.2" x2="423.4" y2="609.2"/>
			<line class="st2" x1="690.8" y1="628.3" x2="423.4" y2="628.3"/>
			<line class="st2" x1="461.6" y1="647.4" x2="461.6" y2="380"/>
			<line class="st2" x1="480.7" y1="647.4" x2="480.7" y2="380"/>
			<line class="st2" x1="442.5" y1="647.4" x2="442.5" y2="380"/>
			<line class="st2" x1="499.8" y1="647.4" x2="499.8" y2="380"/>
			<line class="st2" x1="518.9" y1="647.4" x2="518.9" y2="380"/>
			<line class="st2" x1="538" y1="647.4" x2="538" y2="380"/>
			<line class="st2" x1="557.1" y1="647.4" x2="557.1" y2="380"/>
			<line class="st2" x1="576.2" y1="647.4" x2="576.2" y2="380"/>
			<line class="st2" x1="595.3" y1="647.4" x2="595.3" y2="380"/>
			<line class="st2" x1="614.4" y1="647.4" x2="614.4" y2="380"/>
			<line class="st2" x1="633.5" y1="647.4" x2="633.5" y2="380"/>
			<line class="st2" x1="652.6" y1="647.4" x2="652.6" y2="380"/>
			<line class="st2" x1="671.7" y1="647.4" x2="671.7" y2="380"/>
			<polyline class="st2" points="690.8,628.3 652.6,647.4 614.4,628.3 576.2,647.4 538,628.3 499.8,647.4 461.6,628.3 423.4,647.4 
							"/>
			<polyline class="st2" points="690.8,609.2 652.6,628.3 614.4,609.2 576.2,628.3 538,609.2 499.8,628.3 461.6,609.2 423.4,628.3 
							"/>
			<polyline class="st2" points="690.8,590.1 652.6,609.2 614.4,590.1 576.2,609.2 538,590.1 499.8,609.2 461.6,590.1 423.4,609.2 
							"/>
			<polyline class="st2" points="690.8,571 652.6,590.1 614.4,571 576.2,590.1 538,571 499.8,590.1 461.6,571 423.4,590.1 			"/>
			<polyline class="st2" points="690.8,551.9 652.6,571 614.4,551.9 576.2,571 538,551.9 499.8,571 461.6,551.9 423.4,571 			"/>
			<polyline class="st2" points="690.8,532.8 652.6,551.9 614.4,532.8 576.2,551.9 538,532.8 499.8,551.9 461.6,532.8 423.4,551.9 
							"/>
			<polyline class="st2" points="690.8,513.7 652.6,532.8 614.4,513.7 576.2,532.8 538,513.7 499.8,532.8 461.6,513.7 423.4,532.8 
							"/>
			<polyline class="st2" points="690.8,494.6 652.6,513.7 614.4,494.6 576.2,513.7 538,494.6 499.8,513.7 461.6,494.6 423.4,513.7 
							"/>
			<polyline class="st2" points="690.8,475.5 652.6,494.6 614.4,475.5 576.2,494.6 538,475.5 499.8,494.6 461.6,475.5 423.4,494.6 
							"/>
			<polyline class="st2" points="690.8,456.4 652.6,475.5 614.4,456.4 576.2,475.5 538,456.4 499.8,475.5 461.6,456.4 423.4,475.5 
							"/>
			<polyline class="st2" points="690.8,437.3 652.6,456.4 614.4,437.3 576.2,456.4 538,437.3 499.8,456.4 461.6,437.3 423.4,456.4 
							"/>
			<polyline class="st2" points="690.8,418.2 652.6,437.3 614.4,418.2 576.2,437.3 538,418.2 499.8,437.3 461.6,418.2 423.4,437.3 
							"/>
			<polyline class="st2" points="690.8,399.1 652.6,418.2 614.4,399.1 576.2,418.2 538,399.1 499.8,418.2 461.6,399.1 423.4,418.2 
							"/>
			<polyline class="st2" points="690.8,380 652.6,399.1 614.4,380 576.2,399.1 538,380 499.8,399.1 461.6,380 423.4,399.1 			"/>
			<polyline class="st2" points="423.4,628.3 461.6,647.4 499.8,628.3 538,647.4 576.2,628.3 614.4,647.4 652.6,628.3 690.8,647.4 
							"/>
			<polyline class="st2" points="423.4,609.2 461.6,628.3 499.8,609.2 538,628.3 576.2,609.2 614.4,628.3 652.6,609.2 690.8,628.3 
							"/>
			<polyline class="st2" points="423.4,590.1 461.6,609.2 499.8,590.1 538,609.2 576.2,590.1 614.4,609.2 652.6,590.1 690.8,609.2 
							"/>
			<polyline class="st2" points="423.4,571 461.6,590.1 499.8,571 538,590.1 576.2,571 614.4,590.1 652.6,571 690.8,590.1 			"/>
			<polyline class="st2" points="423.4,551.9 461.6,571 499.8,551.9 538,571 576.2,551.9 614.4,571 652.6,551.9 690.8,571 			"/>
			<polyline class="st2" points="423.4,532.8 461.6,551.9 499.8,532.8 538,551.9 576.2,532.8 614.4,551.9 652.6,532.8 690.8,551.9 
							"/>
			<polyline class="st2" points="423.4,513.7 461.6,532.8 499.8,513.7 538,532.8 576.2,513.7 614.4,532.8 652.6,513.7 690.8,532.8 
							"/>
			<polyline class="st2" points="423.4,494.6 461.6,513.7 499.8,494.6 538,513.7 576.2,494.6 614.4,513.7 652.6,494.6 690.8,513.7 
							"/>
			<polyline class="st2" points="423.4,475.5 461.6,494.6 499.8,475.5 538,494.6 576.2,475.5 614.4,494.6 652.6,475.5 690.8,494.6 
							"/>
			<polyline class="st2" points="423.4,456.4 461.6,475.5 499.8,456.4 538,475.5 576.2,456.4 614.4,475.5 652.6,456.4 690.8,475.5 
							"/>
			<polyline class="st2" points="423.4,437.3 461.6,456.4 499.8,437.3 538,456.4 576.2,437.3 614.4,456.4 652.6,437.3 690.8,456.4 
							"/>
			<polyline class="st2" points="423.4,418.2 461.6,437.3 499.8,418.2 538,437.3 576.2,418.2 614.4,437.3 652.6,418.2 690.8,437.3 
							"/>
			<polyline class="st2" points="423.4,399.1 461.6,418.2 499.8,399.1 538,418.2 576.2,399.1 614.4,418.2 652.6,399.1 690.8,418.2 
							"/>
			<polyline class="st2" points="423.4,380 461.6,399.1 499.8,380 538,399.1 576.2,380 614.4,399.1 652.6,380 690.8,399.1 			"/>
			<rect x="-165.8" y="380" class="st2" width="267.4" height="267.4"/>
			<line class="st2" x1="-165.8" y1="609.2" x2="101.6" y2="609.2"/>
			<line class="st2" x1="-165.8" y1="590.1" x2="101.6" y2="590.1"/>
			<line class="st2" x1="-165.8" y1="628.3" x2="101.6" y2="628.3"/>
			<line class="st2" x1="-165.8" y1="571" x2="101.6" y2="571"/>
			<line class="st2" x1="-165.8" y1="551.9" x2="101.6" y2="551.9"/>
			<line class="st2" x1="-165.8" y1="532.8" x2="101.6" y2="532.8"/>
			<line class="st2" x1="-165.8" y1="513.7" x2="101.6" y2="513.7"/>
			<line class="st2" x1="-165.8" y1="494.6" x2="101.6" y2="494.6"/>
			<line class="st2" x1="-165.8" y1="475.5" x2="101.6" y2="475.5"/>
			<line class="st2" x1="-165.8" y1="456.4" x2="101.6" y2="456.4"/>
			<line class="st2" x1="-165.8" y1="437.3" x2="101.6" y2="437.3"/>
			<line class="st2" x1="-165.8" y1="418.2" x2="101.6" y2="418.2"/>
			<line class="st2" x1="-165.8" y1="399.1" x2="101.6" y2="399.1"/>
			<line class="st2" x1="63.4" y1="380" x2="63.4" y2="647.4"/>
			<line class="st2" x1="44.3" y1="380" x2="44.3" y2="647.4"/>
			<line class="st2" x1="82.5" y1="380" x2="82.5" y2="647.4"/>
			<line class="st2" x1="25.2" y1="380" x2="25.2" y2="647.4"/>
			<line class="st2" x1="6.1" y1="380" x2="6.1" y2="647.4"/>
			<line class="st2" x1="-13" y1="380" x2="-13" y2="647.4"/>
			<line class="st2" x1="-32.1" y1="380" x2="-32.1" y2="647.4"/>
			<line class="st2" x1="-51.2" y1="380" x2="-51.2" y2="647.4"/>
			<line class="st2" x1="-70.3" y1="380" x2="-70.3" y2="647.4"/>
			<line class="st2" x1="-89.4" y1="380" x2="-89.4" y2="647.4"/>
			<line class="st2" x1="-108.5" y1="380" x2="-108.5" y2="647.4"/>
			<line class="st2" x1="-127.6" y1="380" x2="-127.6" y2="647.4"/>
			<line class="st2" x1="-146.7" y1="380" x2="-146.7" y2="647.4"/>
			<polyline class="st2" points="-165.8,418.2 -127.6,380 -89.4,418.2 -51.2,380 -13,418.2 25.2,380 63.4,418.2 101.6,380 			"/>
			<polyline class="st2" points="-165.8,456.4 -127.6,418.2 -89.4,456.4 -51.2,418.2 -13,456.4 25.2,418.2 63.4,456.4 101.6,418.2 
							"/>
			<polyline class="st2" points="-165.8,494.6 -127.6,456.4 -89.4,494.6 -51.2,456.4 -13,494.6 25.2,456.4 63.4,494.6 101.6,456.4 
							"/>
			<polyline class="st2" points="-165.8,532.8 -127.6,494.6 -89.4,532.8 -51.2,494.6 -13,532.8 25.2,494.6 63.4,532.8 101.6,494.6 
							"/>
			<polyline class="st2" points="-165.8,571 -127.6,532.8 -89.4,571 -51.2,532.8 -13,571 25.2,532.8 63.4,571 101.6,532.8 			"/>
			<polyline class="st2" points="-165.8,609.2 -127.6,571 -89.4,609.2 -51.2,571 -13,609.2 25.2,571 63.4,609.2 101.6,571 			"/>
			<polyline class="st2" points="-165.8,647.4 -127.6,609.2 -89.4,647.4 -51.2,609.2 -13,647.4 25.2,609.2 63.4,647.4 101.6,609.2 
							"/>
			<polyline class="st2" points="101.6,418.2 63.4,380 25.2,418.2 -13,380 -51.2,418.2 -89.4,380 -127.6,418.2 -165.8,380 			"/>
			<polyline class="st2" points="101.6,456.4 63.4,418.2 25.2,456.4 -13,418.2 -51.2,456.4 -89.4,418.2 -127.6,456.4 -165.8,418.2 
							"/>
			<polyline class="st2" points="101.6,494.6 63.4,456.4 25.2,494.6 -13,456.4 -51.2,494.6 -89.4,456.4 -127.6,494.6 -165.8,456.4 
							"/>
			<polyline class="st2" points="101.6,532.8 63.4,494.6 25.2,532.8 -13,494.6 -51.2,532.8 -89.4,494.6 -127.6,532.8 -165.8,494.6 
							"/>
			<polyline class="st2" points="101.6,571 63.4,532.8 25.2,571 -13,532.8 -51.2,571 -89.4,532.8 -127.6,571 -165.8,532.8 			"/>
			<polyline class="st2" points="101.6,609.2 63.4,571 25.2,609.2 -13,571 -51.2,609.2 -89.4,571 -127.6,609.2 -165.8,571 			"/>
			<polyline class="st2" points="101.6,647.4 63.4,609.2 25.2,647.4 -13,609.2 -51.2,647.4 -89.4,609.2 -127.6,647.4 -165.8,609.2 
							"/>
			<rect x="128.8" y="672.8" class="st2" width="267.4" height="267.4"/>
			<polyline class="st2" points="377.1,672.8 396.2,711.1 377.1,749.3 396.2,787.5 377.1,825.7 396.2,863.9 377.1,902.1 
				396.2,940.3 			"/>
			<polyline class="st2" points="358,672.8 377.1,711.1 358,749.3 377.1,787.5 358,825.7 377.1,863.9 358,902.1 377.1,940.3 			"/>
			<polyline class="st2" points="338.9,672.8 358,711.1 338.9,749.3 358,787.5 338.9,825.7 358,863.9 338.9,902.1 358,940.3 			"/>
			<polyline class="st2" points="319.8,672.8 338.9,711.1 319.8,749.3 338.9,787.5 319.8,825.7 338.9,863.9 319.8,902.1 
				338.9,940.3 			"/>
			<polyline class="st2" points="300.7,672.8 319.8,711.1 300.7,749.3 319.8,787.5 300.7,825.7 319.8,863.9 300.7,902.1 
				319.8,940.3 			"/>
			<polyline class="st2" points="281.6,672.8 300.7,711.1 281.6,749.3 300.7,787.5 281.6,825.7 300.7,863.9 281.6,902.1 
				300.7,940.3 			"/>
			<polyline class="st2" points="262.5,672.8 281.6,711.1 262.5,749.3 281.6,787.5 262.5,825.7 281.6,863.9 262.5,902.1 
				281.6,940.3 			"/>
			<polyline class="st2" points="243.4,672.8 262.5,711.1 243.4,749.3 262.5,787.5 243.4,825.7 262.5,863.9 243.4,902.1 
				262.5,940.3 			"/>
			<polyline class="st2" points="224.3,672.8 243.4,711.1 224.3,749.3 243.4,787.5 224.3,825.7 243.4,863.9 224.3,902.1 
				243.4,940.3 			"/>
			<polyline class="st2" points="205.2,672.8 224.3,711.1 205.2,749.3 224.3,787.5 205.2,825.7 224.3,863.9 205.2,902.1 
				224.3,940.3 			"/>
			<polyline class="st2" points="186.1,672.8 205.2,711.1 186.1,749.3 205.2,787.5 186.1,825.7 205.2,863.9 186.1,902.1 
				205.2,940.3 			"/>
			<polyline class="st2" points="167,672.8 186.1,711.1 167,749.3 186.1,787.5 167,825.7 186.1,863.9 167,902.1 186.1,940.3 			"/>
			<polyline class="st2" points="147.9,672.8 167,711.1 147.9,749.3 167,787.5 147.9,825.7 167,863.9 147.9,902.1 167,940.3 			"/>
			<polyline class="st2" points="128.8,672.8 147.9,711.1 128.8,749.3 147.9,787.5 128.8,825.7 147.9,863.9 128.8,902.1 
				147.9,940.3 			"/>
			<polyline class="st2" points="377.1,940.3 396.2,902.1 377.1,863.9 396.2,825.7 377.1,787.5 396.2,749.3 377.1,711.1 
				396.2,672.8 			"/>
			<polyline class="st2" points="358,940.3 377.1,902.1 358,863.9 377.1,825.7 358,787.5 377.1,749.3 358,711.1 377.1,672.8 			"/>
			<polyline class="st2" points="338.9,940.3 358,902.1 338.9,863.9 358,825.7 338.9,787.5 358,749.3 338.9,711.1 358,672.8 			"/>
			<polyline class="st2" points="319.8,940.3 338.9,902.1 319.8,863.9 338.9,825.7 319.8,787.5 338.9,749.3 319.8,711.1 
				338.9,672.8 			"/>
			<polyline class="st2" points="300.7,940.3 319.8,902.1 300.7,863.9 319.8,825.7 300.7,787.5 319.8,749.3 300.7,711.1 
				319.8,672.8 			"/>
			<polyline class="st2" points="281.6,940.3 300.7,902.1 281.6,863.9 300.7,825.7 281.6,787.5 300.7,749.3 281.6,711.1 
				300.7,672.8 			"/>
			<polyline class="st2" points="262.5,940.3 281.6,902.1 262.5,863.9 281.6,825.7 262.5,787.5 281.6,749.3 262.5,711.1 
				281.6,672.8 			"/>
			<polyline class="st2" points="243.4,940.3 262.5,902.1 243.4,863.9 262.5,825.7 243.4,787.5 262.5,749.3 243.4,711.1 
				262.5,672.8 			"/>
			<polyline class="st2" points="224.3,940.3 243.4,902.1 224.3,863.9 243.4,825.7 224.3,787.5 243.4,749.3 224.3,711.1 
				243.4,672.8 			"/>
			<polyline class="st2" points="205.2,940.3 224.3,902.1 205.2,863.9 224.3,825.7 205.2,787.5 224.3,749.3 205.2,711.1 
				224.3,672.8 			"/>
			<polyline class="st2" points="186.1,940.3 205.2,902.1 186.1,863.9 205.2,825.7 186.1,787.5 205.2,749.3 186.1,711.1 
				205.2,672.8 			"/>
			<polyline class="st2" points="167,940.3 186.1,902.1 167,863.9 186.1,825.7 167,787.5 186.1,749.3 167,711.1 186.1,672.8 			"/>
			<polyline class="st2" points="147.9,940.3 167,902.1 147.9,863.9 167,825.7 147.9,787.5 167,749.3 147.9,711.1 167,672.8 			"/>
			<polyline class="st2" points="128.8,940.3 147.9,902.1 128.8,863.9 147.9,825.7 128.8,787.5 147.9,749.3 128.8,711.1 
				147.9,672.8 			"/>
			<rect x="423.4" y="672.9" class="st2" width="267.4" height="267.4"/>
			<polyline class="st2" points="690.8,921.2 652.6,940.3 614.4,921.2 576.2,940.3 538,921.2 499.8,940.3 461.6,921.2 423.4,940.3 
							"/>
			<polyline class="st2" points="690.8,902.1 652.6,921.2 614.4,902.1 576.2,921.2 538,902.1 499.8,921.2 461.6,902.1 423.4,921.2 
							"/>
			<polyline class="st2" points="690.8,883 652.6,902.1 614.4,883 576.2,902.1 538,883 499.8,902.1 461.6,883 423.4,902.1 			"/>
			<polyline class="st2" points="690.8,863.9 652.6,883 614.4,863.9 576.2,883 538,863.9 499.8,883 461.6,863.9 423.4,883 			"/>
			<polyline class="st2" points="690.8,844.8 652.6,863.9 614.4,844.8 576.2,863.9 538,844.8 499.8,863.9 461.6,844.8 423.4,863.9 
							"/>
			<polyline class="st2" points="690.8,825.7 652.6,844.8 614.4,825.7 576.2,844.8 538,825.7 499.8,844.8 461.6,825.7 423.4,844.8 
							"/>
			<polyline class="st2" points="690.8,806.6 652.6,825.7 614.4,806.6 576.2,825.7 538,806.6 499.8,825.7 461.6,806.6 423.4,825.7 
							"/>
			<polyline class="st2" points="690.8,787.5 652.6,806.6 614.4,787.5 576.2,806.6 538,787.5 499.8,806.6 461.6,787.5 423.4,806.6 
							"/>
			<polyline class="st2" points="690.8,768.4 652.6,787.5 614.4,768.4 576.2,787.5 538,768.4 499.8,787.5 461.6,768.4 423.4,787.5 
							"/>
			<polyline class="st2" points="690.8,749.3 652.6,768.4 614.4,749.3 576.2,768.4 538,749.3 499.8,768.4 461.6,749.3 423.4,768.4 
							"/>
			<polyline class="st2" points="690.8,730.2 652.6,749.3 614.4,730.2 576.2,749.3 538,730.2 499.8,749.3 461.6,730.2 423.4,749.3 
							"/>
			<polyline class="st2" points="690.8,711.1 652.6,730.2 614.4,711.1 576.2,730.2 538,711.1 499.8,730.2 461.6,711.1 423.4,730.2 
							"/>
			<polyline class="st2" points="690.8,692 652.6,711.1 614.4,692 576.2,711.1 538,692 499.8,711.1 461.6,692 423.4,711.1 			"/>
			<polyline class="st2" points="690.8,672.9 652.6,692 614.4,672.9 576.2,692 538,672.9 499.8,692 461.6,672.9 423.4,692 			"/>
			<polyline class="st2" points="423.4,921.2 461.6,940.3 499.8,921.2 538,940.3 576.2,921.2 614.4,940.3 652.6,921.2 690.8,940.3 
							"/>
			<polyline class="st2" points="423.4,902.1 461.6,921.2 499.8,902.1 538,921.2 576.2,902.1 614.4,921.2 652.6,902.1 690.8,921.2 
							"/>
			<polyline class="st2" points="423.4,883 461.6,902.1 499.8,883 538,902.1 576.2,883 614.4,902.1 652.6,883 690.8,902.1 			"/>
			<polyline class="st2" points="423.4,863.9 461.6,883 499.8,863.9 538,883 576.2,863.9 614.4,883 652.6,863.9 690.8,883 			"/>
			<polyline class="st2" points="423.4,844.8 461.6,863.9 499.8,844.8 538,863.9 576.2,844.8 614.4,863.9 652.6,844.8 690.8,863.9 
							"/>
			<polyline class="st2" points="423.4,825.7 461.6,844.8 499.8,825.7 538,844.8 576.2,825.7 614.4,844.8 652.6,825.7 690.8,844.8 
							"/>
			<polyline class="st2" points="423.4,806.6 461.6,825.7 499.8,806.6 538,825.7 576.2,806.6 614.4,825.7 652.6,806.6 690.8,825.7 
							"/>
			<polyline class="st2" points="423.4,787.5 461.6,806.6 499.8,787.5 538,806.6 576.2,787.5 614.4,806.6 652.6,787.5 690.8,806.6 
							"/>
			<polyline class="st2" points="423.4,768.4 461.6,787.5 499.8,768.4 538,787.5 576.2,768.4 614.4,787.5 652.6,768.4 690.8,787.5 
							"/>
			<polyline class="st2" points="423.4,749.3 461.6,768.4 499.8,749.3 538,768.4 576.2,749.3 614.4,768.4 652.6,749.3 690.8,768.4 
							"/>
			<polyline class="st2" points="423.4,730.2 461.6,749.3 499.8,730.2 538,749.3 576.2,730.2 614.4,749.3 652.6,730.2 690.8,749.3 
							"/>
			<polyline class="st2" points="423.4,711.1 461.6,730.2 499.8,711.1 538,730.2 576.2,711.1 614.4,730.2 652.6,711.1 690.8,730.2 
							"/>
			<polyline class="st2" points="423.4,692 461.6,711.1 499.8,692 538,711.1 576.2,692 614.4,711.1 652.6,692 690.8,711.1 			"/>
			<polyline class="st2" points="423.4,672.9 461.6,692 499.8,672.9 538,692 576.2,672.9 614.4,692 652.6,672.9 690.8,692 			"/>
			<rect x="-165.8" y="672.9" class="st2" width="267.4" height="267.4"/>
			<polyline class="st2" points="-165.8,711.1 -127.6,672.9 -89.4,711.1 -51.2,672.9 -13,711.1 25.2,672.9 63.4,711.1 101.6,672.9 
							"/>
			<polyline class="st2" points="-165.8,749.3 -127.6,711.1 -89.4,749.3 -51.2,711.1 -13,749.3 25.2,711.1 63.4,749.3 101.6,711.1 
							"/>
			<polyline class="st2" points="-165.8,787.5 -127.6,749.3 -89.4,787.5 -51.2,749.3 -13,787.5 25.2,749.3 63.4,787.5 101.6,749.3 
							"/>
			<polyline class="st2" points="-165.8,825.7 -127.6,787.5 -89.4,825.7 -51.2,787.5 -13,825.7 25.2,787.5 63.4,825.7 101.6,787.5 
							"/>
			<polyline class="st2" points="-165.8,863.9 -127.6,825.7 -89.4,863.9 -51.2,825.7 -13,863.9 25.2,825.7 63.4,863.9 101.6,825.7 
							"/>
			<polyline class="st2" points="-165.8,902.1 -127.6,863.9 -89.4,902.1 -51.2,863.9 -13,902.1 25.2,863.9 63.4,902.1 101.6,863.9 
							"/>
			<polyline class="st2" points="-165.8,940.3 -127.6,902.1 -89.4,940.3 -51.2,902.1 -13,940.3 25.2,902.1 63.4,940.3 101.6,902.1 
							"/>
			<polyline class="st2" points="101.6,711.1 63.4,672.9 25.2,711.1 -13,672.9 -51.2,711.1 -89.4,672.9 -127.6,711.1 -165.8,672.9 
							"/>
			<polyline class="st2" points="101.6,749.3 63.4,711.1 25.2,749.3 -13,711.1 -51.2,749.3 -89.4,711.1 -127.6,749.3 -165.8,711.1 
							"/>
			<polyline class="st2" points="101.6,787.5 63.4,749.3 25.2,787.5 -13,749.3 -51.2,787.5 -89.4,749.3 -127.6,787.5 -165.8,749.3 
							"/>
			<polyline class="st2" points="101.6,825.7 63.4,787.5 25.2,825.7 -13,787.5 -51.2,825.7 -89.4,787.5 -127.6,825.7 -165.8,787.5 
							"/>
			<polyline class="st2" points="101.6,863.9 63.4,825.7 25.2,863.9 -13,825.7 -51.2,863.9 -89.4,825.7 -127.6,863.9 -165.8,825.7 
							"/>
			<polyline class="st2" points="101.6,902.1 63.4,863.9 25.2,902.1 -13,863.9 -51.2,902.1 -89.4,863.9 -127.6,902.1 -165.8,863.9 
							"/>
			<polyline class="st2" points="101.6,940.3 63.4,902.1 25.2,940.3 -13,902.1 -51.2,940.3 -89.4,902.1 -127.6,940.3 -165.8,902.1 
							"/>
			<g class="st4">
				<defs>
					<rect id="SVGID_3_" x="-377.5" y="-173.4" width="1280" height="1323.5"/>
				</defs>
				<clipPath id="SVGID_4_">
					<use xlink:href="#SVGID_3_"  style="overflow:visible;"/>
				</clipPath>
				<path class="st5" d="M-69.8,354.4l-0.8,2.5h-1.1l2.7-8.1h1.3l2.8,8.1H-66l-0.9-2.5H-69.8z M-67.1,353.6l-0.8-2.3
					c-0.2-0.5-0.3-1-0.4-1.5h0c-0.1,0.5-0.3,1-0.4,1.5l-0.8,2.3H-67.1z M-66.5,347l-1.5,1.4h-0.9l1.1-1.4H-66.5z"/>
				<path class="st5" d="M-63.7,357v-8.1h1.1l2.6,4.1c0.6,0.9,1.1,1.8,1.5,2.6l0,0c-0.1-1.1-0.1-2.1-0.1-3.3v-3.4h1v8.1h-1.1
					l-2.6-4.1c-0.6-0.9-1.1-1.8-1.5-2.7l0,0c0.1,1,0.1,2,0.1,3.3v3.5H-63.7z"/>
				<path class="st5" d="M-49.7,356.6c-0.5,0.2-1.4,0.4-2.5,0.4c-1.2,0-2.2-0.3-3-1.1c-0.7-0.7-1.1-1.8-1.1-3c0-2.4,1.7-4.2,4.4-4.2
					c0.9,0,1.7,0.2,2,0.4l-0.3,0.9c-0.4-0.2-1-0.3-1.8-0.3c-2,0-3.3,1.2-3.3,3.3c0,2.1,1.2,3.3,3.1,3.3c0.7,0,1.2-0.1,1.4-0.2v-2.4
					h-1.6v-0.8h2.7V356.6z"/>
				<path class="st5" d="M-47,348.9v4.8c0,1.8,0.8,2.6,1.9,2.6c1.2,0,2-0.8,2-2.6v-4.8h1.1v4.7c0,2.5-1.3,3.5-3.1,3.5
					c-1.7,0-2.9-0.9-2.9-3.5v-4.8H-47z"/>
				<polygon class="st5" points="-40.3,348.9 -39.3,348.9 -39.3,356.1 -35.8,356.1 -35.8,357 -40.3,357 				"/>
				<path class="st5" d="M-28.2,352.8c0,2.8-1.7,4.3-3.8,4.3c-2.1,0-3.6-1.7-3.6-4.1c0-2.6,1.6-4.2,3.8-4.2
					C-29.6,348.7-28.2,350.4-28.2,352.8 M-34.5,353c0,1.7,0.9,3.3,2.6,3.3c1.7,0,2.6-1.5,2.6-3.4c0-1.6-0.8-3.3-2.6-3.3
					C-33.6,349.6-34.5,351.2-34.5,353"/>
				<path class="st5" d="M-24.3,349c0.6-0.1,1.4-0.2,2.2-0.2c1.5,0,2.6,0.3,3.3,1c0.7,0.7,1.1,1.6,1.1,2.9c0,1.3-0.4,2.4-1.2,3.1
					c-0.8,0.8-2,1.2-3.6,1.2c-0.7,0-1.4,0-1.9-0.1V349z M-23.3,356.1c0.3,0,0.6,0.1,1.1,0.1c2.2,0,3.4-1.2,3.4-3.4
					c0-1.9-1.1-3.1-3.3-3.1c-0.5,0-0.9,0-1.2,0.1V356.1z"/>
				<polygon class="st5" points="-12.1,353.2 -15.3,353.2 -15.3,356.1 -11.8,356.1 -11.8,357 -16.3,357 -16.3,348.9 -11.9,348.9 
					-11.9,349.8 -15.3,349.8 -15.3,352.3 -12.1,352.3 				"/>
				<path class="st5" d="M-5,357v-2.1h-3.6v-0.7l3.5-5H-4v4.8h1.1v0.8H-4v2.1H-5z M-5,354v-2.6c0-0.4,0-0.8,0-1.2h0
					c-0.2,0.5-0.4,0.8-0.6,1.2l-1.9,2.7v0H-5z"/>
				<path class="st5" d="M2.6,350.1h-3l-0.3,2c0.2,0,0.3,0,0.6,0c0.6,0,1.2,0.1,1.7,0.4c0.6,0.3,1.1,1,1.1,2c0,1.5-1.2,2.7-2.9,2.7
					c-0.9,0-1.6-0.2-1.9-0.5l0.3-0.8c0.3,0.2,1,0.4,1.7,0.4c1,0,1.8-0.6,1.8-1.7c0-1-0.7-1.7-2.2-1.7c-0.4,0-0.8,0-1.1,0.1l0.5-3.7
					h3.7V350.1z"/>
				<path class="st5" d="M7.6,351.8c0,1.4-1,2-1.9,2c-1.1,0-1.9-0.8-1.9-1.9c0-1.2,0.9-2,1.9-2C6.8,349.9,7.6,350.7,7.6,351.8
					 M4.6,351.9c0,0.8,0.5,1.4,1.1,1.4c0.6,0,1.1-0.6,1.1-1.4c0-0.6-0.3-1.4-1.1-1.4C4.9,350.5,4.6,351.2,4.6,351.9"/>
				<path class="st5" d="M224.9,354.4L224,357h-1.1l2.7-8.1h1.3l2.8,8.1h-1.1l-0.9-2.5H224.9z M227.5,353.6l-0.8-2.3
					c-0.2-0.5-0.3-1-0.4-1.5h0c-0.1,0.5-0.3,1-0.4,1.5l-0.8,2.3H227.5z M228.1,347l-1.5,1.4h-0.9l1.1-1.4H228.1z"/>
				<path class="st5" d="M230.9,357v-8.1h1.1l2.6,4.1c0.6,0.9,1.1,1.8,1.5,2.6l0,0c-0.1-1.1-0.1-2.1-0.1-3.3v-3.4h1v8.1h-1.1
					l-2.6-4.1c-0.6-0.9-1.1-1.8-1.5-2.7l0,0c0.1,1,0.1,2,0.1,3.3v3.5H230.9z"/>
				<path class="st5" d="M244.9,356.6c-0.5,0.2-1.4,0.4-2.5,0.4c-1.2,0-2.2-0.3-3-1.1c-0.7-0.7-1.1-1.8-1.1-3c0-2.4,1.7-4.2,4.4-4.2
					c0.9,0,1.7,0.2,2,0.4l-0.3,0.9c-0.4-0.2-1-0.3-1.8-0.3c-2,0-3.3,1.2-3.3,3.3c0,2.1,1.2,3.3,3.1,3.3c0.7,0,1.2-0.1,1.4-0.2v-2.4
					h-1.6v-0.8h2.7V356.6z"/>
				<path class="st5" d="M247.6,348.9v4.8c0,1.8,0.8,2.6,1.9,2.6c1.2,0,2-0.8,2-2.6v-4.8h1.1v4.7c0,2.5-1.3,3.5-3.1,3.5
					c-1.7,0-2.9-0.9-2.9-3.5v-4.8H247.6z"/>
				<polygon class="st5" points="254.3,348.9 255.3,348.9 255.3,356.1 258.8,356.1 258.8,357 254.3,357 				"/>
				<path class="st5" d="M266.4,352.8c0,2.8-1.7,4.3-3.8,4.3c-2.1,0-3.6-1.7-3.6-4.1c0-2.6,1.6-4.2,3.8-4.2
					C265,348.7,266.4,350.4,266.4,352.8 M260.1,353c0,1.7,0.9,3.3,2.6,3.3c1.7,0,2.6-1.5,2.6-3.4c0-1.6-0.8-3.3-2.6-3.3
					C261,349.6,260.1,351.2,260.1,353"/>
				<path class="st5" d="M270.3,349c0.6-0.1,1.4-0.2,2.2-0.2c1.5,0,2.6,0.3,3.3,1c0.7,0.7,1.1,1.6,1.1,2.9c0,1.3-0.4,2.4-1.2,3.1
					c-0.8,0.8-2,1.2-3.6,1.2c-0.7,0-1.4,0-1.9-0.1V349z M271.4,356.1c0.3,0,0.6,0.1,1.1,0.1c2.2,0,3.4-1.2,3.4-3.4
					c0-1.9-1.1-3.1-3.3-3.1c-0.5,0-0.9,0-1.2,0.1V356.1z"/>
				<polygon class="st5" points="282.5,353.2 279.3,353.2 279.3,356.1 282.8,356.1 282.8,357 278.3,357 278.3,348.9 282.7,348.9 
					282.7,349.8 279.3,349.8 279.3,352.3 282.5,352.3 				"/>
				<path class="st5" d="M290.8,349.9c-0.2,0-0.5,0-0.8,0c-1.7,0.3-2.5,1.5-2.7,2.8h0c0.4-0.5,1-0.9,1.9-0.9c1.4,0,2.3,1,2.3,2.5
					c0,1.4-1,2.7-2.6,2.7c-1.7,0-2.8-1.3-2.8-3.3c0-1.5,0.6-2.7,1.3-3.5c0.6-0.6,1.5-1,2.5-1.2c0.3,0,0.6-0.1,0.8-0.1V349.9z
					 M290.5,354.4c0-1.1-0.6-1.8-1.6-1.8c-0.6,0-1.2,0.4-1.5,1c-0.1,0.1-0.1,0.3-0.1,0.5c0,1.3,0.6,2.2,1.7,2.2
					C289.9,356.3,290.5,355.5,290.5,354.4"/>
				<path class="st5" d="M297.7,353c0,2.6-1,4.1-2.7,4.1c-1.5,0-2.6-1.4-2.6-4c0-2.6,1.1-4.1,2.7-4.1
					C296.8,349,297.7,350.5,297.7,353 M293.5,353.1c0,2,0.6,3.2,1.6,3.2c1.1,0,1.6-1.3,1.6-3.3c0-1.9-0.5-3.2-1.6-3.2
					C294.1,349.8,293.5,351,293.5,353.1"/>
				<path class="st5" d="M302.2,351.8c0,1.4-1,2-1.9,2c-1.1,0-1.9-0.8-1.9-1.9c0-1.2,0.9-2,1.9-2
					C301.5,349.9,302.2,350.7,302.2,351.8 M299.2,351.9c0,0.8,0.5,1.4,1.1,1.4c0.6,0,1.1-0.6,1.1-1.4c0-0.6-0.3-1.4-1.1-1.4
					C299.5,350.5,299.2,351.2,299.2,351.9"/>
				<path class="st5" d="M519.5,354.4l-0.8,2.5h-1.1l2.7-8.1h1.3l2.8,8.1h-1.1l-0.9-2.5H519.5z M522.1,353.6l-0.8-2.3
					c-0.2-0.5-0.3-1-0.4-1.5h0c-0.1,0.5-0.3,1-0.4,1.5l-0.8,2.3H522.1z M522.7,347l-1.5,1.4h-0.9l1.1-1.4H522.7z"/>
				<path class="st5" d="M525.5,357v-8.1h1.1l2.6,4.1c0.6,0.9,1.1,1.8,1.5,2.6l0,0c-0.1-1.1-0.1-2.1-0.1-3.3v-3.4h1v8.1h-1.1
					l-2.6-4.1c-0.6-0.9-1.1-1.8-1.5-2.7l0,0c0.1,1,0.1,2,0.1,3.3v3.5H525.5z"/>
				<path class="st5" d="M539.5,356.6c-0.5,0.2-1.4,0.4-2.5,0.4c-1.2,0-2.2-0.3-3-1.1c-0.7-0.7-1.1-1.8-1.1-3c0-2.4,1.7-4.2,4.4-4.2
					c0.9,0,1.7,0.2,2,0.4l-0.3,0.9c-0.4-0.2-1-0.3-1.8-0.3c-2,0-3.3,1.2-3.3,3.3c0,2.1,1.2,3.3,3.1,3.3c0.7,0,1.2-0.1,1.4-0.2v-2.4
					h-1.6v-0.8h2.7V356.6z"/>
				<path class="st5" d="M542.2,348.9v4.8c0,1.8,0.8,2.6,1.9,2.6c1.2,0,2-0.8,2-2.6v-4.8h1.1v4.7c0,2.5-1.3,3.5-3.1,3.5
					c-1.7,0-2.9-0.9-2.9-3.5v-4.8H542.2z"/>
				<polygon class="st5" points="548.9,348.9 550,348.9 550,356.1 553.4,356.1 553.4,357 548.9,357 				"/>
				<path class="st5" d="M561,352.8c0,2.8-1.7,4.3-3.8,4.3c-2.1,0-3.6-1.7-3.6-4.1c0-2.6,1.6-4.2,3.8-4.2
					C559.6,348.7,561,350.4,561,352.8 M554.7,353c0,1.7,0.9,3.3,2.6,3.3c1.7,0,2.6-1.5,2.6-3.4c0-1.6-0.8-3.3-2.6-3.3
					C555.6,349.6,554.7,351.2,554.7,353"/>
				<path class="st5" d="M564.9,349c0.6-0.1,1.4-0.2,2.2-0.2c1.5,0,2.6,0.3,3.3,1c0.7,0.7,1.1,1.6,1.1,2.9c0,1.3-0.4,2.4-1.2,3.1
					c-0.8,0.8-2,1.2-3.6,1.2c-0.7,0-1.4,0-1.9-0.1V349z M566,356.1c0.3,0,0.6,0.1,1.1,0.1c2.2,0,3.4-1.2,3.4-3.4
					c0-1.9-1.1-3.1-3.3-3.1c-0.5,0-0.9,0-1.2,0.1V356.1z"/>
				<polygon class="st5" points="577.1,353.2 574,353.2 574,356.1 577.5,356.1 577.5,357 572.9,357 572.9,348.9 577.3,348.9 
					577.3,349.8 574,349.8 574,352.3 577.1,352.3 				"/>
				<path class="st5" d="M581.2,355.7c0.3,0.2,1,0.5,1.7,0.5c1.4,0,1.8-0.9,1.8-1.5c0-1.1-1-1.6-2-1.6h-0.6v-0.8h0.6
					c0.8,0,1.7-0.4,1.7-1.3c0-0.6-0.4-1.2-1.4-1.2c-0.6,0-1.2,0.3-1.6,0.5l-0.3-0.8c0.4-0.3,1.2-0.6,2-0.6c1.5,0,2.2,0.9,2.2,1.9
					c0,0.8-0.5,1.5-1.4,1.8v0c1,0.2,1.7,0.9,1.7,2c0,1.2-1,2.3-2.8,2.3c-0.9,0-1.6-0.3-2-0.5L581.2,355.7z"/>
				<path class="st5" d="M592.3,353c0,2.6-1,4.1-2.7,4.1c-1.5,0-2.6-1.4-2.6-4c0-2.6,1.1-4.1,2.7-4.1
					C591.4,349,592.3,350.5,592.3,353 M588.1,353.1c0,2,0.6,3.2,1.6,3.2c1.1,0,1.6-1.3,1.6-3.3c0-1.9-0.5-3.2-1.6-3.2
					C588.8,349.8,588.1,351,588.1,353.1"/>
				<path class="st5" d="M596.8,351.8c0,1.4-1,2-1.9,2c-1.1,0-1.9-0.8-1.9-1.9c0-1.2,0.9-2,1.9-2
					C596.1,349.9,596.8,350.7,596.8,351.8 M593.8,351.9c0,0.8,0.5,1.4,1.1,1.4c0.6,0,1.1-0.6,1.1-1.4c0-0.6-0.3-1.4-1.1-1.4
					C594.1,350.5,593.8,351.2,593.8,351.9"/>
				<rect x="815.8" y="1100.4" class="st6" width="5.1" height="1.2"/>
				<path class="st6" d="M831.9,1082.7c-0.9,0.4-1.5,1.1-1.9,1.9c-0.4,0.8-0.6,2-0.6,3.4v4.8c0,1.2,0.1,2.1,0.3,2.8
					c0.2,0.6,0.5,1.2,0.9,1.8c0.4,0.5,1.1,0.9,1.9,1.3c0.8,0.3,1.7,0.5,2.8,0.5c1.1,0,2-0.2,2.7-0.5c0.7-0.3,1.3-0.8,1.8-1.4
					c0.5-0.6,0.8-1.2,0.9-1.7c0.1-0.5,0.2-1.3,0.2-2.3v-1.2h-4.7v2.2c0,0.8-0.1,1.4-0.2,1.7c-0.1,0.3-0.4,0.4-0.8,0.4
					c-0.3,0-0.5-0.1-0.6-0.3c-0.1-0.2-0.2-0.7-0.2-1.4v-3.5h6.5v-2.2c0-1.6-0.2-2.8-0.6-3.7c-0.4-0.9-1-1.6-1.9-2.1
					c-0.9-0.5-2.1-0.8-3.5-0.8C833.8,1082,832.8,1082.3,831.9,1082.7 M835.8,1085.3c0.1,0.2,0.1,0.8,0.1,1.6v1.2h-1.5v-1.2
					c0-0.9,0-1.5,0.1-1.7c0.1-0.2,0.3-0.3,0.6-0.3C835.5,1084.9,835.7,1085.1,835.8,1085.3"/>
				<path class="st6" d="M812.9,1114.4v-9.2h1.3v-2.6h-1.3v-2.2h-5v2.2h-1.1v2.6h1.1v8.7c0,1.6,0,2.7,0.1,3.1
					c0.1,0.4,0.3,0.8,0.7,1.2c0.4,0.3,0.8,0.6,1.3,0.7c0.5,0.1,1.3,0.1,2.4,0.1h2v-2.6c-0.8,0-1.3-0.1-1.4-0.2
					C813,1116,812.9,1115.4,812.9,1114.4"/>
				<path class="st6" d="M809.8,1098.3c0.8,0.5,1.9,0.7,3.3,0.7c1.1,0,2-0.2,2.8-0.5c0.7-0.3,1.4-0.9,1.8-1.6c0.5-0.7,0.7-1.4,0.8-2
					c0.1-0.7,0.1-1.6,0.1-2.9h-4.4v2c0,0.8-0.1,1.4-0.2,1.7c-0.1,0.3-0.3,0.5-0.7,0.5c-0.3,0-0.5-0.1-0.7-0.4
					c-0.1-0.3-0.2-0.7-0.2-1.3v-7.7c0-0.7,0-1.2,0.1-1.4c0.1-0.2,0.3-0.3,0.6-0.3c0.3,0,0.5,0.1,0.6,0.4c0.1,0.2,0.2,0.7,0.2,1.3
					v1.9h4.7c0-1.5-0.2-2.7-0.5-3.6c-0.3-0.8-0.9-1.5-1.8-2.1c-0.9-0.6-2-0.8-3.3-0.8c-1.3,0-2.4,0.3-3.3,0.8
					c-0.9,0.6-1.5,1.2-1.8,1.9c-0.3,0.7-0.4,1.8-0.4,3.2v4.7c0,1.6,0.2,2.8,0.5,3.7C808.4,1097.2,809,1097.8,809.8,1098.3"/>
				<rect x="815.8" y="1102.6" class="st6" width="5.1" height="16.4"/>
				<path class="st6" d="M828.5,1108.1c-0.3,3.4-0.5,5.6-0.6,6.4l-1.4-12h-4.5l2.5,16.4h6.5l2.3-16.4H829
					C828.8,1104.4,828.7,1106.2,828.5,1108.1"/>
				<path class="st6" d="M844.7,1104.1c-0.4-0.5-1.1-1-1.9-1.3c-0.8-0.3-1.8-0.5-2.9-0.5c-1.3,0-2.4,0.3-3.3,0.8
					c-0.9,0.5-1.4,1.2-1.8,2.1c-0.3,0.9-0.5,2-0.5,3.6v4.2c0,1.4,0.1,2.4,0.3,3.1c0.2,0.7,0.5,1.3,0.9,1.8c0.4,0.5,1,0.9,1.8,1.1
					c0.8,0.2,1.7,0.4,2.8,0.4c1,0,1.9-0.1,2.6-0.4c0.8-0.3,1.4-0.7,1.9-1.3c0.5-0.6,0.8-1.2,1-1.9c0.1-0.7,0.2-1.8,0.2-3.2v-4
					c0-1.2-0.1-2-0.2-2.6C845.5,1105.2,845.2,1104.6,844.7,1104.1 M840.9,1114.7c0,0.7,0,1.2-0.1,1.4c-0.1,0.2-0.3,0.3-0.6,0.3
					c-0.3,0-0.5-0.1-0.6-0.4c-0.1-0.2-0.1-0.7-0.1-1.5v-7.4c0-0.8,0.1-1.4,0.1-1.6c0.1-0.2,0.3-0.3,0.6-0.3s0.5,0.1,0.6,0.3
					c0.1,0.2,0.1,0.7,0.1,1.6V1114.7z"/>
				<path class="st6" d="M851.8,1082.9c-0.9-0.6-2.1-0.9-3.8-0.9c-1.4,0-2.6,0.3-3.4,0.8c-0.9,0.5-1.5,1.1-1.8,1.8
					c-0.3,0.7-0.4,1.7-0.4,2.9v1.1h4.7v-1.7c0-0.9,0-1.5,0.1-1.7c0.1-0.2,0.3-0.3,0.6-0.3c0.3,0,0.5,0.1,0.6,0.4
					c0.1,0.3,0.2,0.8,0.2,1.7c0,0.7-0.1,1.1-0.2,1.4c-0.1,0.2-1,0.7-2.6,1.3c-1.5,0.6-2.5,1.1-2.9,1.6c-0.4,0.4-0.6,1.3-0.6,2.5v1.3
					c0,1.7,0.4,2.7,1.1,3.2c0.7,0.5,1.5,0.7,2.4,0.7c0.7,0,1.2-0.1,1.7-0.4c0.5-0.3,0.9-0.7,1.2-1.3v1.5h4.9v-8.2
					c0-2.7-0.1-4.5-0.3-5.4C853.1,1084.3,852.6,1083.5,851.8,1082.9 M848.6,1094.3c0,0.8,0,1.3-0.1,1.5c-0.1,0.2-0.3,0.3-0.6,0.3
					c-0.3,0-0.6-0.1-0.7-0.4c-0.1-0.2-0.2-0.8-0.2-1.6c0-0.7,0.1-1.3,0.2-1.7c0.1-0.4,0.6-0.9,1.4-1.5V1094.3z"/>
				<path class="st6" d="M825.5,1092.3c0-1.6,0-2.6,0.1-3c0.1-0.4,0.4-0.8,0.8-1c0.4-0.2,1.1-0.4,2-0.4v-5.8
					c-1.4,0.1-2.4,0.9-3.2,2.5l0.2-2.2h-5v16.4h5V1092.3z"/>
				<path class="st6" d="M872.6,1065.9c-0.2-0.6-0.5-1.1-0.9-1.7c-0.4-0.5-1.1-1-1.9-1.3c-0.8-0.3-1.8-0.5-2.9-0.5
					c-1.3,0-2.4,0.3-3.3,0.8c-0.9,0.5-1.5,1.2-1.8,2.1c-0.3,0.9-0.5,2-0.5,3.6v4.2c0,1.4,0.1,2.4,0.3,3.1c0.2,0.7,0.5,1.3,0.9,1.8
					c0.4,0.5,1,0.9,1.8,1.1c0.8,0.2,1.7,0.4,2.8,0.4c1,0,1.9-0.1,2.6-0.4c0.8-0.3,1.4-0.7,1.9-1.3c0.5-0.6,0.8-1.2,1-1.9
					c0.1-0.7,0.2-1.8,0.2-3.2v-4C872.8,1067.4,872.7,1066.5,872.6,1065.9 M867.8,1074.8c0,0.7,0,1.2-0.1,1.4
					c-0.1,0.2-0.3,0.3-0.6,0.3c-0.3,0-0.5-0.1-0.6-0.4c-0.1-0.2-0.1-0.7-0.1-1.5v-7.4c0-0.8,0.1-1.4,0.1-1.6
					c0.1-0.2,0.3-0.3,0.6-0.3c0.3,0,0.5,0.1,0.6,0.3c0.1,0.2,0.1,0.7,0.1,1.6V1074.8z"/>
				<path class="st6" d="M828.1,1078.7c0.7,0.5,1.5,0.7,2.4,0.7c0.7,0,1.2-0.1,1.7-0.4c0.5-0.3,0.9-0.7,1.2-1.3v1.5h4.9v-8.2
					c0-2.7-0.1-4.5-0.3-5.4c-0.2-0.9-0.7-1.6-1.5-2.2c-0.9-0.6-2.1-0.9-3.8-0.9c-1.4,0-2.6,0.3-3.4,0.8c-0.9,0.5-1.5,1.1-1.8,1.8
					s-0.4,1.7-0.4,2.9v1.1h4.7v-1.7c0-0.9,0-1.5,0.1-1.7c0.1-0.2,0.3-0.3,0.6-0.3c0.3,0,0.5,0.1,0.6,0.4c0.1,0.3,0.2,0.8,0.2,1.7
					c0,0.7-0.1,1.1-0.2,1.4c-0.1,0.2-1,0.7-2.6,1.3c-1.5,0.6-2.5,1.1-2.9,1.6c-0.4,0.4-0.6,1.3-0.6,2.5v1.3
					C827,1077.2,827.3,1078.2,828.1,1078.7 M831.8,1072.8c0.1-0.4,0.6-0.9,1.4-1.5v3.4c0,0.8,0,1.3-0.1,1.5
					c-0.1,0.2-0.3,0.3-0.6,0.3c-0.3,0-0.6-0.1-0.7-0.4c-0.1-0.2-0.2-0.8-0.2-1.6C831.7,1073.8,831.7,1073.2,831.8,1072.8"/>
				<path class="st6" d="M844.9,1072.7c0-1.6,0-2.6,0.1-3c0.1-0.4,0.4-0.8,0.8-1c0.4-0.2,1.1-0.4,2-0.4v-5.8
					c-1.4,0.1-2.4,0.9-3.2,2.5l0.2-2.2h-5v16.4h5V1072.7z"/>
				<path class="st6" d="M860,1069c0-1.5-0.2-2.7-0.5-3.6c-0.3-0.8-0.9-1.5-1.8-2.1c-0.9-0.6-2-0.8-3.3-0.8c-1.3,0-2.4,0.3-3.3,0.8
					c-0.9,0.6-1.5,1.2-1.8,1.9c-0.3,0.7-0.4,1.8-0.4,3.2v4.7c0,1.6,0.2,2.8,0.5,3.7c0.3,0.9,0.9,1.5,1.7,2c0.8,0.5,1.9,0.7,3.4,0.7
					c1.1,0,2-0.2,2.8-0.5c0.7-0.3,1.4-0.9,1.8-1.6c0.5-0.7,0.7-1.4,0.8-2c0.1-0.7,0.1-1.6,0.1-2.9h-4.4v2c0,0.8-0.1,1.4-0.2,1.7
					c-0.1,0.3-0.3,0.5-0.7,0.5c-0.3,0-0.5-0.1-0.7-0.4c-0.1-0.3-0.2-0.7-0.2-1.3v-7.7c0-0.7,0-1.2,0.1-1.4c0.1-0.2,0.3-0.3,0.6-0.3
					c0.3,0,0.5,0.1,0.6,0.4c0.1,0.2,0.2,0.7,0.2,1.3v1.9H860z"/>
				<path class="st6" d="M812.5,1067.8c0-0.8,0-1.3,0-1.6c0-0.2,0.1-0.4,0.3-0.6c0.2-0.2,0.3-0.3,0.6-0.3c0.4,0,0.6,0.2,0.6,0.5
					c0.1,0.3,0.1,1.3,0.1,2.9v10.4h4.8v-10.7c0-1.4,0.1-2.3,0.2-2.6c0.1-0.3,0.3-0.5,0.7-0.5c0.3,0,0.6,0.2,0.7,0.5
					c0.1,0.3,0.1,1.2,0.1,2.6v10.7h4.8v-11.7c0-1.3-0.1-2.3-0.2-2.9c-0.2-0.6-0.5-1.1-1.1-1.5c-0.6-0.4-1.3-0.6-2.1-0.6
					c-0.6,0-1.2,0.2-1.8,0.5c-0.5,0.3-1,0.8-1.4,1.4c-0.8-1.2-1.8-1.9-3.2-1.9c-0.7,0-1.3,0.2-1.8,0.5c-0.5,0.3-1,0.8-1.4,1.4
					l0.1-1.6h-4.9v16.4h4.8V1067.8z"/>
				<path class="st6" d="M850.5,1116c0-0.2-0.1-0.4-0.2-0.5c-0.2-0.1-0.4-0.2-0.7-0.2h-0.9v2.3h0.4v-1h0.4l0.5,1h0.5l-0.5-1
					c0.2,0,0.3-0.1,0.4-0.2C850.4,1116.3,850.5,1116.2,850.5,1116 M849.9,1116.4c-0.1,0.1-0.2,0.1-0.4,0.1h-0.4v-0.8h0.4
					c0.2,0,0.4,0,0.5,0.1s0.1,0.2,0.1,0.3C850,1116.2,850,1116.3,849.9,1116.4"/>
				<path class="st6" d="M850.7,1115c-0.2-0.1-0.4-0.2-0.6-0.3c-0.2-0.1-0.4-0.1-0.7-0.1c-0.3,0-0.6,0.1-0.9,0.2
					c-0.3,0.1-0.5,0.3-0.7,0.6c-0.1,0.2-0.3,0.4-0.3,0.6c-0.1,0.2-0.1,0.4-0.1,0.7c0,0.3,0.1,0.5,0.2,0.8c0.1,0.2,0.2,0.5,0.4,0.6
					c0.2,0.2,0.4,0.3,0.7,0.4c0.2,0.1,0.5,0.2,0.8,0.2c0.3,0,0.5-0.1,0.8-0.2c0.2-0.1,0.5-0.3,0.7-0.4c0.2-0.2,0.3-0.4,0.4-0.6
					c0.1-0.2,0.2-0.5,0.2-0.8c0-0.3-0.1-0.6-0.2-0.9C851.1,1115.4,850.9,1115.2,850.7,1115 M851.1,1117.3c-0.1,0.2-0.2,0.4-0.4,0.6
					c-0.2,0.2-0.4,0.3-0.6,0.4c-0.2,0.1-0.4,0.1-0.7,0.1c-0.2,0-0.4,0-0.7-0.1c-0.2-0.1-0.4-0.2-0.6-0.4c-0.2-0.2-0.3-0.3-0.4-0.6
					s-0.1-0.4-0.1-0.7c0-0.2,0-0.5,0.1-0.7c0.1-0.2,0.2-0.4,0.4-0.6c0.2-0.2,0.3-0.3,0.6-0.4c0.2-0.1,0.4-0.1,0.7-0.1
					c0.2,0,0.5,0,0.7,0.1c0.2,0.1,0.4,0.2,0.6,0.4c0.2,0.2,0.3,0.4,0.4,0.6c0.1,0.2,0.1,0.4,0.1,0.7
					C851.2,1116.8,851.2,1117.1,851.1,1117.3"/>
			</g>
		</g>
	</g>
</g>
<g id="Capa_2" class="st0">
	<path class="st7" d="M13.4,202H1.6v-11.9C1.6,196.7,6.9,202,13.4,202z"/>
	<path class="st7" d="M25.3,107.4v4c-14,6.6-23.7,20.9-23.7,37.4v-41.4H25.3z"/>
	<path class="st7" d="M25.3,190.1V202H13.4C20,202,25.3,196.7,25.3,190.1z"/>
	<path class="st7" d="M72.6,202H60.7v-11.8C60.7,196.7,66,202,72.6,202z"/>
	<path class="st7" d="M84.4,83.7v4c-10.2,4.9-18.1,13.8-21.7,24.7c-0.7-0.4-1.3-0.7-2-1V83.7H84.4z"/>
	<path class="st7" d="M84.4,190.2V202H72.6C79.1,202,84.4,196.7,84.4,190.2z"/>
	<path class="st7" d="M131.7,202h-11.8v-11.8C119.9,196.7,125.1,202,131.7,202z"/>
	<path class="st7" d="M143.5,83.7v41.4c0-16.5-9.7-30.8-23.7-37.4v-4H143.5z"/>
	<path class="st7" d="M143.5,190.2V202h-11.8C138.2,202,143.5,196.7,143.5,190.2z"/>
	<path class="st7" d="M214.4,131v11.8c0-6.5-5.3-11.8-11.8-11.8H214.4z"/>
	<path class="st7" d="M214.4,142.8v11.8h-11.8C209.2,154.7,214.4,149.4,214.4,142.8z"/>
	<path class="st7" d="M226.3,89.6h-11.8V77.8C214.4,84.3,219.7,89.6,226.3,89.6z"/>
	<path class="st7" d="M238.1,77.8v11.8h-11.8C232.8,89.6,238.1,84.3,238.1,77.8z"/>
	<path class="st7" d="M238.1,36.4v41.4c0-16.5-9.7-30.8-23.6-37.4v-4H238.1z"/>
	<path class="st7" d="M167.2,202h-11.8v-11.5C155.5,196.9,160.7,202,167.2,202z"/>
	<path class="st7" d="M179,36.4v4c-13.6,6.5-23.1,20.1-23.6,36.1V36.4H179z"/>
	<path class="st7" d="M179,190.5V202h-11.8C173.6,202,178.8,196.9,179,190.5z"/>
	<path class="st7" d="M60.7,148.7v37.4c-5.4,2.5-11.4,4-17.7,4c-6.3,0-12.4-1.4-17.7-4v-37.4c0-9.8,7.9-17.7,17.7-17.7
		C52.8,131,60.7,139,60.7,148.7z"/>
	<path class="st7" d="M60.7,148.7c0,9.8-7.9,17.7-17.7,17.7c-9.8,0-17.7-7.9-17.7-17.7c0-9.8,7.9-17.7,17.7-17.7
		C52.8,131,60.7,139,60.7,148.7z"/>
	<path class="st7" d="M119.9,125.1v37.4c-5.4,2.5-11.4,4-17.7,4s-12.4-1.4-17.7-4v-37.4c0-9.8,7.9-17.7,17.7-17.7
		S119.9,115.3,119.9,125.1z"/>
	<path class="st7" d="M119.9,125.1c0,9.8-7.9,17.7-17.7,17.7s-17.7-7.9-17.7-17.7c0-9.8,7.9-17.7,17.7-17.7S119.9,115.3,119.9,125.1
		z"/>
	<path class="st7" d="M155.3,77.8c0-0.4,0-0.9,0-1.3v2.7C155.3,78.7,155.3,78.3,155.3,77.8z"/>
	<path class="st7" d="M238.1,77.8c0,4.1-0.6,8.1-1.7,11.8c-5.1,17.1-20.9,29.6-39.7,29.6c-6.3,0-12.4-1.4-17.7-4V77.8
		c0-9.8,7.9-17.7,17.7-17.7c9.8,0,17.7,7.9,17.7,17.7c0,6.5,5.3,11.8,11.8,11.8C232.8,89.6,238.1,84.3,238.1,77.8z"/>
	<path class="st7" d="M214.4,77.8c0,9.8-7.9,17.7-17.7,17.7c-9.8,0-17.7-7.9-17.7-17.7c0-9.8,7.9-17.7,17.7-17.7
		C206.5,60.1,214.4,68,214.4,77.8z"/>
	<path class="st7" d="M155.3,190.2c0-0.1,0-0.2,0-0.3v0.6C155.3,190.4,155.3,190.3,155.3,190.2z"/>
	<path class="st7" d="M179,190.2c0,0.1,0,0.2,0,0.3v-0.6C179,190,179,190.1,179,190.2z"/>
</g>
<g id="Capa_3">
	<path class="st8" d="M144.5,137.1v65c0,6.5-5.3,11.8-11.8,11.8c-6.5,0-11.8-5.3-11.8-11.8v-65c0-9.8-7.9-17.7-17.7-17.7
		s-17.7,7.9-17.7,17.7v65c0,6.5-5.3,11.8-11.8,11.8c-6.5,0-11.8-5.3-11.8-11.8v-41.4c0-9.8-7.9-17.7-17.7-17.7
		c-9.8,0-17.7,7.9-17.7,17.7v41.4c0,6.5-5.3,11.9-11.8,11.9c-6.5,0-11.8-5.3-11.8-11.9v-41.4c0-16.5,9.7-30.8,23.7-37.4
		c5.4-2.5,11.4-4,17.7-4c6.3,0,12.3,1.4,17.7,4c0.7,0.3,1.3,0.7,2,1c3.5-10.9,11.4-19.8,21.7-24.7c5.4-2.5,11.4-4,17.7-4
		s12.4,1.4,17.7,4C134.8,106.4,144.5,120.6,144.5,137.1z"/>
	<path class="st8" d="M85.4,66.2c0-9.8,7.9-17.7,17.7-17.7s17.7,7.9,17.7,17.7c0,9.8-7.9,17.7-17.7,17.7S85.4,76,85.4,66.2z"/>
	<path class="st8" d="M61.7,89.8c0,9.8-7.9,17.7-17.7,17.7c-9.8,0-17.7-7.9-17.7-17.7c0-9.8,7.9-17.7,17.7-17.7
		C53.8,72.1,61.7,80,61.7,89.8z"/>
	<path class="st8" d="M596.6,18.9c0-9.8,7.9-17.7,17.7-17.7c9.8,0,17.7,8,17.7,17.7c0,9.8-7.9,17.7-17.7,17.7
		C604.5,36.6,596.6,28.7,596.6,18.9z"/>
	<path class="st8" d="M655.7,89.8c0,6.5-5.3,11.8-11.8,11.8c-6.5,0-11.8-5.3-11.8-11.8c0-9.8-7.9-17.7-17.7-17.7
		c-9.8,0-17.7,7.9-17.7,17.7V143h23.7c6.5,0,11.8,5.3,11.8,11.8c0,6.5-5.3,11.8-11.8,11.8h-23.7v35.8c-0.2,6.4-5.4,11.5-11.8,11.5
		s-11.7-5.1-11.8-11.5v-114c0.5-16,10-29.6,23.6-36.1c5.4-2.5,11.4-4,17.7-4c6.3,0,12.4,1.4,17.7,4C646,59,655.7,73.3,655.7,89.8z"
		/>
	<g>
		<path class="st8" d="M214.5,202.4c-5.3,4.1-10.5,7.2-15.4,9.3c-5,2.1-10.5,3.1-16.7,3.1c-5.6,0-10.6-1.1-14.9-3.3
			c-4.3-2.2-7.6-5.2-9.9-9.1c-2.3-3.8-3.5-7.9-3.5-12.4c0-6,1.9-11.1,5.7-15.4c3.8-4.2,9.1-7.1,15.7-8.5c1.4-0.3,4.9-1,10.4-2.2
			s10.3-2.2,14.2-3.1c3.9-0.9,8.2-2.1,12.8-3.4c-0.3-5.8-1.4-10.1-3.5-12.8c-2.1-2.7-6.4-4.1-12.9-4.1c-5.6,0-9.8,0.8-12.6,2.3
			c-2.8,1.6-5.2,3.9-7.3,7c-2,3.1-3.4,5.2-4.3,6.2c-0.8,1-2.6,1.5-5.4,1.5c-2.5,0-4.6-0.8-6.4-2.4c-1.8-1.6-2.7-3.6-2.7-6.1
			c0-3.9,1.4-7.6,4.1-11.3c2.7-3.7,7-6.7,12.8-9c5.8-2.4,13-3.5,21.7-3.5c9.7,0,17.3,1.1,22.8,3.4c5.5,2.3,9.4,5.9,11.7,10.8
			c2.3,4.9,3.4,11.5,3.4,19.7c0,5.2,0,9.5,0,13.1c0,3.6-0.1,7.6-0.1,12c0,4.1,0.7,8.4,2.1,12.9c1.4,4.5,2.1,7.4,2.1,8.7
			c0,2.3-1.1,4.3-3.2,6.2c-2.1,1.9-4.5,2.8-7.2,2.8c-2.3,0-4.5-1.1-6.7-3.2C219.3,209.5,217,206.4,214.5,202.4z M213.1,170.6
			c-3.2,1.2-7.9,2.4-14.1,3.7c-6.2,1.3-10.4,2.3-12.8,2.9c-2.4,0.6-4.6,1.8-6.8,3.6c-2.1,1.8-3.2,4.3-3.2,7.5c0,3.3,1.3,6.2,3.8,8.5
			c2.5,2.3,5.8,3.5,9.9,3.5c4.4,0,8.4-1,12-2.9c3.7-1.9,6.4-4.4,8.1-7.4c2-3.3,3-8.8,3-16.4V170.6z"/>
		<path class="st8" d="M275.5,183.1v18.4c0,4.5-1,7.8-3.1,10c-2.1,2.2-4.8,3.3-8,3.3c-3.2,0-5.8-1.1-7.8-3.4c-2-2.3-3.1-5.6-3.1-10
			v-61.2c0-9.9,3.6-14.8,10.7-14.8c3.7,0,6.3,1.2,7.9,3.5c1.6,2.3,2.5,5.7,2.7,10.2c2.6-4.5,5.3-7.9,8.1-10.2
			c2.8-2.3,6.5-3.5,11.1-3.5s9.1,1.2,13.5,3.5c4.4,2.3,6.5,5.4,6.5,9.2c0,2.7-0.9,4.9-2.8,6.6c-1.9,1.7-3.9,2.6-6,2.6
			c-0.8,0-2.8-0.5-5.8-1.5c-3.1-1-5.8-1.5-8.2-1.5c-3.2,0-5.9,0.8-7.9,2.5c-2,1.7-3.6,4.2-4.8,7.5c-1.1,3.3-1.9,7.3-2.3,11.9
			C275.7,170.9,275.5,176.5,275.5,183.1z"/>
		<path class="st8" d="M375.5,204.7l-19.4-31.9l-11.9,11.3v17.5c0,4.2-1.1,7.5-3.3,9.8c-2.2,2.3-4.8,3.4-7.7,3.4c-3.4,0-6-1.1-8-3.4
			s-2.9-5.6-2.9-10v-93.8c0-4.9,0.9-8.6,2.8-11.2c1.9-2.6,4.6-3.8,8.1-3.8c3.4,0,6.1,1.2,8.1,3.5c2,2.3,3,5.7,3,10.2v53.3l24.7-25.9
			c3.1-3.2,5.4-5.4,7-6.6c1.6-1.2,3.6-1.8,5.9-1.8c2.7,0,5,0.9,6.8,2.6c1.8,1.7,2.7,3.9,2.7,6.6c0,3.2-3,7.5-8.9,12.9l-11.7,10.7
			l22.6,35.4c1.7,2.6,2.9,4.6,3.6,6c0.7,1.4,1.1,2.7,1.1,3.9c0,3.5-1,6.2-2.9,8.3c-1.9,2-4.4,3-7.5,3c-2.7,0-4.8-0.7-6.2-2.2
			S378,208.6,375.5,204.7z"/>
		<path class="st8" d="M470.4,175.5h-43c0.1,5,1.1,9.4,3,13.2c2,3.8,4.6,6.7,7.8,8.6c3.2,1.9,6.8,2.9,10.8,2.9c2.6,0,5-0.3,7.2-0.9
			c2.2-0.6,4.3-1.6,6.3-2.9c2-1.3,3.9-2.7,5.6-4.2c1.7-1.5,3.9-3.5,6.7-6.1c1.1-1,2.7-1.5,4.8-1.5c2.3,0,4.1,0.6,5.5,1.9
			c1.4,1.2,2.1,3,2.1,5.2c0,2-0.8,4.3-2.3,7c-1.6,2.7-3.9,5.2-7,7.7c-3.1,2.4-7.1,4.5-11.8,6.1c-4.8,1.6-10.2,2.4-16.4,2.4
			c-14.1,0-25.1-4-33-12.1c-7.8-8.1-11.8-19-11.8-32.8c0-6.5,1-12.5,2.9-18.1c1.9-5.6,4.8-10.3,8.5-14.3c3.7-4,8.3-7,13.7-9.1
			c5.4-2.1,11.4-3.2,18-3.2c8.6,0,16,1.8,22.1,5.4c6.1,3.6,10.8,8.3,13.8,14.1c3.1,5.7,4.6,11.6,4.6,17.6c0,5.5-1.6,9.1-4.8,10.8
			C480.6,174.7,476.1,175.5,470.4,175.5z M427.4,163h39.9c-0.5-7.5-2.6-13.1-6.1-16.9c-3.5-3.7-8.2-5.6-13.9-5.6
			c-5.5,0-10,1.9-13.5,5.7C430.3,150,428.1,155.6,427.4,163z"/>
		<path class="st8" d="M508.3,127.3h2.4v-13.2c0-3.5,0.1-6.3,0.3-8.3c0.2-2,0.7-3.7,1.6-5.2c0.9-1.5,2.1-2.7,3.7-3.7
			c1.6-0.9,3.4-1.4,5.4-1.4c2.8,0,5.3,1,7.6,3.1c1.5,1.4,2.5,3.1,2.9,5.1c0.4,2,0.6,4.9,0.6,8.6v15h8.1c3.1,0,5.5,0.7,7.1,2.2
			c1.6,1.5,2.5,3.4,2.5,5.7c0,3-1.2,5-3.5,6.2c-2.3,1.2-5.7,1.8-10,1.8h-4.1v40.4c0,3.4,0.1,6.1,0.4,7.9c0.2,1.9,0.9,3.4,1.9,4.5
			c1,1.2,2.8,1.7,5.1,1.7c1.3,0,3-0.2,5.2-0.7c2.2-0.5,3.9-0.7,5.2-0.7c1.8,0,3.4,0.7,4.8,2.1c1.4,1.4,2.1,3.2,2.1,5.3
			c0,3.5-1.9,6.3-5.8,8.1c-3.9,1.9-9.4,2.8-16.7,2.8c-6.9,0-12.1-1.2-15.6-3.5s-5.9-5.5-7-9.6c-1.1-4.1-1.7-9.5-1.7-16.4v-42.2h-2.9
			c-3.2,0-5.6-0.8-7.3-2.3c-1.7-1.5-2.5-3.4-2.5-5.7c0-2.3,0.9-4.2,2.6-5.7C502.4,128.1,504.9,127.3,508.3,127.3z"/>
	</g>
	<g>
		<path class="st8" d="M663.2,183.1v18.4c0,4.5-1,7.8-3.1,10c-2.1,2.2-4.8,3.3-8,3.3c-3.2,0-5.8-1.1-7.8-3.4s-3.1-5.6-3.1-10v-61.2
			c0-9.9,3.6-14.8,10.7-14.8c3.7,0,6.3,1.2,7.9,3.5c1.6,2.3,2.5,5.7,2.7,10.2c2.6-4.5,5.3-7.9,8.1-10.2c2.8-2.3,6.5-3.5,11.1-3.5
			s9.1,1.2,13.5,3.5c4.4,2.3,6.5,5.4,6.5,9.2c0,2.7-0.9,4.9-2.8,6.6c-1.9,1.7-3.9,2.6-6,2.6c-0.8,0-2.8-0.5-5.8-1.5
			c-3.1-1-5.8-1.5-8.2-1.5c-3.2,0-5.9,0.8-7.9,2.5c-2,1.7-3.6,4.2-4.8,7.5c-1.1,3.3-1.9,7.3-2.3,11.9
			C663.5,170.9,663.2,176.5,663.2,183.1z"/>
		<path class="st8" d="M724.8,115.1c-3.1,0-5.7-0.9-7.9-2.8c-2.2-1.9-3.3-4.5-3.3-8c0-3.1,1.1-5.7,3.3-7.7c2.2-2,4.8-3,7.8-3
			c2.8,0,5.4,0.9,7.6,2.7c2.2,1.8,3.3,4.5,3.3,8c0,3.4-1.1,6-3.2,7.9C730.3,114.2,727.7,115.1,724.8,115.1z M735.7,137.9v63.6
			c0,4.4-1,7.7-3.1,10c-2.1,2.3-4.8,3.4-8,3.4s-5.8-1.2-7.9-3.5c-2-2.3-3-5.6-3-9.9v-62.9c0-4.4,1-7.6,3-9.8c2-2.2,4.6-3.3,7.9-3.3
			s5.9,1.1,8,3.3C734.6,130.9,735.7,133.9,735.7,137.9z"/>
		<path class="st8" d="M819.8,175.5h-43c0.1,5,1.1,9.4,3,13.2c2,3.8,4.6,6.7,7.8,8.6c3.2,1.9,6.8,2.9,10.8,2.9c2.6,0,5-0.3,7.2-0.9
			c2.2-0.6,4.3-1.6,6.3-2.9c2-1.3,3.9-2.7,5.6-4.2c1.7-1.5,3.9-3.5,6.7-6.1c1.1-1,2.7-1.5,4.8-1.5c2.3,0,4.1,0.6,5.5,1.9
			c1.4,1.2,2.1,3,2.1,5.2c0,2-0.8,4.3-2.3,7c-1.6,2.7-3.9,5.2-7,7.7c-3.1,2.4-7.1,4.5-11.8,6.1c-4.8,1.6-10.2,2.4-16.4,2.4
			c-14.1,0-25.1-4-33-12.1c-7.8-8.1-11.8-19-11.8-32.8c0-6.5,1-12.5,2.9-18.1c1.9-5.6,4.8-10.3,8.5-14.3c3.7-4,8.3-7,13.7-9.1
			c5.4-2.1,11.4-3.2,18-3.2c8.6,0,16,1.8,22.1,5.4c6.1,3.6,10.8,8.3,13.8,14.1c3.1,5.7,4.6,11.6,4.6,17.6c0,5.5-1.6,9.1-4.8,10.8
			C830,174.7,825.5,175.5,819.8,175.5z M776.8,163h39.9c-0.5-7.5-2.6-13.1-6.1-16.9c-3.5-3.7-8.2-5.6-13.9-5.6
			c-5.5,0-10,1.9-13.5,5.7C779.6,150,777.5,155.6,776.8,163z"/>
		<path class="st8" d="M876.4,137.5v2.7c3.9-5.1,8.1-8.8,12.7-11.2c4.6-2.4,9.9-3.6,15.8-3.6c5.8,0,11,1.3,15.5,3.8
			c4.6,2.5,8,6.1,10.2,10.7c1.4,2.7,2.4,5.6,2.8,8.7c0.4,3.1,0.6,7.1,0.6,11.9v40.9c0,4.4-1,7.7-3,10c-2,2.3-4.6,3.4-7.9,3.4
			c-3.3,0-5.9-1.2-8-3.5c-2-2.3-3.1-5.6-3.1-9.9v-36.7c0-7.3-1-12.8-3-16.6c-2-3.8-6-5.8-12-5.8c-3.9,0-7.5,1.2-10.7,3.5
			c-3.2,2.3-5.6,5.5-7.1,9.6c-1.1,3.3-1.6,9.4-1.6,18.4v27.6c0,4.5-1,7.8-3.1,10c-2.1,2.2-4.7,3.3-8,3.3c-3.2,0-5.8-1.2-7.8-3.5
			c-2-2.3-3.1-5.6-3.1-9.9v-63.6c0-4.2,0.9-7.3,2.7-9.4c1.8-2.1,4.3-3.1,7.5-3.1c1.9,0,3.7,0.5,5.2,1.4c1.6,0.9,2.8,2.3,3.7,4.1
			C875.9,132.7,876.4,134.9,876.4,137.5z"/>
		<path class="st8" d="M1016.4,202.2v-2.2c-3,3.4-5.9,6.1-8.7,8.3c-2.9,2.1-6,3.7-9.3,4.8c-3.4,1.1-7,1.7-11,1.7
			c-5.3,0-10.1-1.1-14.6-3.3c-4.5-2.2-8.4-5.4-11.6-9.5c-3.3-4.1-5.8-9-7.5-14.6c-1.7-5.6-2.5-11.6-2.5-18.1
			c0-13.7,3.4-24.5,10.1-32.1c6.7-7.7,15.5-11.5,26.5-11.5c6.3,0,11.7,1.1,16,3.3c4.3,2.2,8.6,5.5,12.7,10v-32.5
			c0-4.5,0.9-7.9,2.7-10.2c1.8-2.3,4.4-3.5,7.7-3.5c3.3,0,5.9,1.1,7.7,3.2c1.8,2.1,2.7,5.3,2.7,9.4v97c0,4.2-1,7.3-2.9,9.4
			s-4.4,3.1-7.5,3.1c-3,0-5.5-1.1-7.5-3.3C1017.3,209.4,1016.4,206.3,1016.4,202.2z M973.1,169.9c0,6,0.9,11,2.8,15.2
			c1.9,4.2,4.4,7.3,7.6,9.5c3.2,2.1,6.7,3.2,10.6,3.2c3.9,0,7.4-1,10.6-3c3.2-2,5.7-5.1,7.7-9.3c1.9-4.2,2.9-9.4,2.9-15.6
			c0-5.9-1-10.9-2.9-15.1c-1.9-4.2-4.5-7.4-7.7-9.7c-3.3-2.2-6.8-3.3-10.7-3.3c-4,0-7.6,1.1-10.8,3.4c-3.2,2.3-5.6,5.6-7.4,9.8
			C974,159.3,973.1,164.3,973.1,169.9z"/>
		<path class="st8" d="M1130,186c0,6.1-1.5,11.3-4.4,15.6c-3,4.3-7.3,7.6-13.1,9.8c-5.8,2.2-12.8,3.3-21.1,3.3
			c-7.9,0-14.7-1.2-20.3-3.6c-5.6-2.4-9.8-5.4-12.5-9.1c-2.7-3.6-4-7.3-4-10.9c0-2.4,0.9-4.5,2.6-6.2c1.7-1.7,3.9-2.6,6.5-2.6
			c2.3,0,4.1,0.6,5.3,1.7c1.2,1.1,2.4,2.7,3.5,4.8c2.3,3.9,5,6.8,8.1,8.8c3.1,1.9,7.4,2.9,12.9,2.9c4.4,0,8-1,10.8-2.9
			c2.8-2,4.2-4.2,4.2-6.7c0-3.9-1.5-6.7-4.4-8.5c-2.9-1.8-7.7-3.5-14.5-5.1c-7.6-1.9-13.7-3.9-18.5-5.9c-4.8-2.1-8.6-4.8-11.4-8.2
			c-2.8-3.4-4.3-7.5-4.3-12.5c0-4.4,1.3-8.6,3.9-12.5c2.6-3.9,6.5-7,11.6-9.4c5.1-2.3,11.3-3.5,18.6-3.5c5.7,0,10.8,0.6,15.3,1.8
			c4.5,1.2,8.3,2.8,11.4,4.8c3,2,5.3,4.2,6.9,6.6c1.6,2.4,2.4,4.8,2.4,7.1c0,2.5-0.8,4.6-2.5,6.2c-1.7,1.6-4.1,2.4-7.2,2.4
			c-2.3,0-4.2-0.6-5.8-1.9c-1.6-1.3-3.4-3.2-5.4-5.8c-1.7-2.1-3.6-3.9-5.9-5.2s-5.3-1.9-9.2-1.9c-4,0-7.3,0.8-9.9,2.5
			c-2.6,1.7-3.9,3.8-3.9,6.3c0,2.3,1,4.2,2.9,5.7c1.9,1.5,4.5,2.7,7.8,3.7s7.8,2.1,13.5,3.5c6.8,1.7,12.4,3.7,16.7,6
			c4.3,2.3,7.6,5,9.8,8.2C1128.9,178.4,1130,182,1130,186z"/>
	</g>
</g>
</svg>
